<svg xmlns="http://www.w3.org/2000/svg" version="1.1" xmlns:xlink="http://www.w3.org/1999/xlink" xmlns:svgjs="http://svgjs.dev/svgjs" width="1440" height="560" preserveAspectRatio="none" viewBox="0 0 1440 560"><g mask="url(&quot;#SvgjsMask1000&quot;)" fill="none"><rect width="1440" height="560" x="0" y="0" fill="#0e2a47"></rect><path d="M-47.05 363.07L-47.05 363.07" stroke="#132e65" stroke-width="1.5"></path><path d="M-47.05 363.07L64.93 368.19" stroke="#132e65" stroke-width="1.5"></path><path d="M-47.05 363.07L-44.21 527.31" stroke="#132e65" stroke-width="1.5"></path><path d="M-44.21 527.31L-44.21 527.31" stroke="#132e65" stroke-width="1.5"></path><path d="M-44.21 527.31L55.37 523.02" stroke="#132e65" stroke-width="1.5"></path><path d="M-44.21 527.31L78.76 672.51" stroke="#132e65" stroke-width="1.5"></path><path d="M-44.21 527.31L64.93 368.19" stroke="#132e65" stroke-width="1.5"></path><path d="M64.93 368.19L64.93 368.19" stroke="#132e65" stroke-width="1.5"></path><path d="M64.93 368.19L55.37 523.02" stroke="#132e65" stroke-width="1.5"></path><path d="M64.93 368.19L255.16 345.85" stroke="#132e65" stroke-width="1.5"></path><path d="M55.37 523.02L55.37 523.02" stroke="#132e65" stroke-width="1.5"></path><path d="M55.37 523.02L78.76 672.51" stroke="#132e65" stroke-width="1.5"></path><path d="M78.76 672.51L78.76 672.51" stroke="#132e65" stroke-width="1.5"></path><path d="M78.76 672.51L207.23 639.04" stroke="#132e65" stroke-width="1.5"></path><path d="M255.16 345.85L255.16 345.85" stroke="#132e65" stroke-width="1.5"></path><path d="M255.16 345.85L254.24 530.26" stroke="#132e65" stroke-width="1.5"></path><path d="M255.16 345.85L382.73 528.69" stroke="#132e65" stroke-width="1.5"></path><path d="M255.16 345.85L55.37 523.02" stroke="#132e65" stroke-width="1.5"></path><path d="M254.24 530.26L254.24 530.26" stroke="#132e65" stroke-width="1.5"></path><path d="M254.24 530.26L207.23 639.04" stroke="#132e65" stroke-width="1.5"></path><path d="M207.23 639.04L207.23 639.04" stroke="#132e65" stroke-width="1.5"></path><path d="M382.73 528.69L382.73 528.69" stroke="#132e65" stroke-width="1.5"></path><path d="M382.73 528.69L254.24 530.26" stroke="#132e65" stroke-width="1.5"></path><path d="M382.73 528.69L552.59 551.6" stroke="#132e65" stroke-width="1.5"></path><path d="M382.73 528.69L517.06 411.74" stroke="#132e65" stroke-width="1.5"></path><path d="M338.25 707.03L338.25 707.03" stroke="#132e65" stroke-width="1.5"></path><path d="M338.25 707.03L207.23 639.04" stroke="#132e65" stroke-width="1.5"></path><path d="M338.25 707.03L515.88 695.05" stroke="#132e65" stroke-width="1.5"></path><path d="M338.25 707.03L382.73 528.69" stroke="#132e65" stroke-width="1.5"></path><path d="M517.06 411.74L517.06 411.74" stroke="#132e65" stroke-width="1.5"></path><path d="M517.06 411.74L552.59 551.6" stroke="#132e65" stroke-width="1.5"></path><path d="M517.06 411.74L667.5 401.47" stroke="#132e65" stroke-width="1.5"></path><path d="M517.06 411.74L672.54 220.52" stroke="#132e65" stroke-width="1.5"></path><path d="M517.06 411.74L255.16 345.85" stroke="#132e65" stroke-width="1.5"></path><path d="M517.06 411.74L515.88 695.05" stroke="#132e65" stroke-width="1.5"></path><path d="M552.59 551.6L552.59 551.6" stroke="#132e65" stroke-width="1.5"></path><path d="M552.59 551.6L515.88 695.05" stroke="#132e65" stroke-width="1.5"></path><path d="M515.88 695.05L515.88 695.05" stroke="#132e65" stroke-width="1.5"></path><path d="M515.88 695.05L382.73 528.69" stroke="#132e65" stroke-width="1.5"></path><path d="M515.88 695.05L254.24 530.26" stroke="#132e65" stroke-width="1.5"></path><path d="M515.88 695.05L207.23 639.04" stroke="#132e65" stroke-width="1.5"></path><path d="M672.54 220.52L672.54 220.52" stroke="#132e65" stroke-width="1.5"></path><path d="M672.54 220.52L799.11 227.41" stroke="#132e65" stroke-width="1.5"></path><path d="M672.54 220.52L667.5 401.47" stroke="#132e65" stroke-width="1.5"></path><path d="M672.54 220.52L832.39 368.29" stroke="#132e65" stroke-width="1.5"></path><path d="M672.54 220.52L858.94 87.49" stroke="#132e65" stroke-width="1.5"></path><path d="M672.54 220.52L937.91 355.02" stroke="#132e65" stroke-width="1.5"></path><path d="M667.5 401.47L667.5 401.47" stroke="#132e65" stroke-width="1.5"></path><path d="M667.5 401.47L832.39 368.29" stroke="#132e65" stroke-width="1.5"></path><path d="M858.94 87.49L858.94 87.49" stroke="#132e65" stroke-width="1.5"></path><path d="M858.94 87.49L947.16 69.93" stroke="#132e65" stroke-width="1.5"></path><path d="M858.94 87.49L799.11 227.41" stroke="#132e65" stroke-width="1.5"></path><path d="M858.94 87.49L982.02 199.32" stroke="#132e65" stroke-width="1.5"></path><path d="M799.11 227.41L799.11 227.41" stroke="#132e65" stroke-width="1.5"></path><path d="M832.39 368.29L832.39 368.29" stroke="#132e65" stroke-width="1.5"></path><path d="M832.39 368.29L937.91 355.02" stroke="#132e65" stroke-width="1.5"></path><path d="M832.39 368.29L799.11 227.41" stroke="#132e65" stroke-width="1.5"></path><path d="M800.2 545.18L800.2 545.18" stroke="#132e65" stroke-width="1.5"></path><path d="M800.2 545.18L839.26 707.36" stroke="#132e65" stroke-width="1.5"></path><path d="M800.2 545.18L969.75 547.88" stroke="#132e65" stroke-width="1.5"></path><path d="M800.2 545.18L832.39 368.29" stroke="#132e65" stroke-width="1.5"></path><path d="M839.26 707.36L839.26 707.36" stroke="#132e65" stroke-width="1.5"></path><path d="M839.26 707.36L963.72 668.39" stroke="#132e65" stroke-width="1.5"></path><path d="M839.26 707.36L969.75 547.88" stroke="#132e65" stroke-width="1.5"></path><path d="M839.26 707.36L1147.93 664.17" stroke="#132e65" stroke-width="1.5"></path><path d="M839.26 707.36L515.88 695.05" stroke="#132e65" stroke-width="1.5"></path><path d="M945.71 -93.66L945.71 -93.66" stroke="#132e65" stroke-width="1.5"></path><path d="M945.71 -93.66L1101.61 -47.6" stroke="#132e65" stroke-width="1.5"></path><path d="M945.71 -93.66L947.16 69.93" stroke="#132e65" stroke-width="1.5"></path><path d="M945.71 -93.66L858.94 87.49" stroke="#132e65" stroke-width="1.5"></path><path d="M947.16 69.93L947.16 69.93" stroke="#132e65" stroke-width="1.5"></path><path d="M947.16 69.93L982.02 199.32" stroke="#132e65" stroke-width="1.5"></path><path d="M947.16 69.93L1122.14 71.62" stroke="#132e65" stroke-width="1.5"></path><path d="M982.02 199.32L982.02 199.32" stroke="#132e65" stroke-width="1.5"></path><path d="M982.02 199.32L937.91 355.02" stroke="#132e65" stroke-width="1.5"></path><path d="M982.02 199.32L1154.7 220.15" stroke="#132e65" stroke-width="1.5"></path><path d="M937.91 355.02L937.91 355.02" stroke="#132e65" stroke-width="1.5"></path><path d="M969.75 547.88L969.75 547.88" stroke="#132e65" stroke-width="1.5"></path><path d="M969.75 547.88L963.72 668.39" stroke="#132e65" stroke-width="1.5"></path><path d="M969.75 547.88L1151.63 490.78" stroke="#132e65" stroke-width="1.5"></path><path d="M969.75 547.88L937.91 355.02" stroke="#132e65" stroke-width="1.5"></path><path d="M963.72 668.39L963.72 668.39" stroke="#132e65" stroke-width="1.5"></path><path d="M1101.61 -47.6L1101.61 -47.6" stroke="#132e65" stroke-width="1.5"></path><path d="M1101.61 -47.6L1122.14 71.62" stroke="#132e65" stroke-width="1.5"></path><path d="M1101.61 -47.6L1268.38 -60.25" stroke="#132e65" stroke-width="1.5"></path><path d="M1101.61 -47.6L947.16 69.93" stroke="#132e65" stroke-width="1.5"></path><path d="M1101.61 -47.6L1277.2 40.81" stroke="#132e65" stroke-width="1.5"></path><path d="M1122.14 71.62L1122.14 71.62" stroke="#132e65" stroke-width="1.5"></path><path d="M1122.14 71.62L1154.7 220.15" stroke="#132e65" stroke-width="1.5"></path><path d="M1122.14 71.62L1277.2 40.81" stroke="#132e65" stroke-width="1.5"></path><path d="M1122.14 71.62L982.02 199.32" stroke="#132e65" stroke-width="1.5"></path><path d="M1154.7 220.15L1154.7 220.15" stroke="#132e65" stroke-width="1.5"></path><path d="M1154.7 220.15L1252.39 245.92" stroke="#132e65" stroke-width="1.5"></path><path d="M1154.7 220.15L1100.25 353.73" stroke="#132e65" stroke-width="1.5"></path><path d="M1154.7 220.15L1271.45 355.7" stroke="#132e65" stroke-width="1.5"></path><path d="M1100.25 353.73L1100.25 353.73" stroke="#132e65" stroke-width="1.5"></path><path d="M1100.25 353.73L1151.63 490.78" stroke="#132e65" stroke-width="1.5"></path><path d="M1100.25 353.73L937.91 355.02" stroke="#132e65" stroke-width="1.5"></path><path d="M1100.25 353.73L1271.45 355.7" stroke="#132e65" stroke-width="1.5"></path><path d="M1100.25 353.73L1252.39 245.92" stroke="#132e65" stroke-width="1.5"></path><path d="M1100.25 353.73L982.02 199.32" stroke="#132e65" stroke-width="1.5"></path><path d="M1151.63 490.78L1151.63 490.78" stroke="#132e65" stroke-width="1.5"></path><path d="M1151.63 490.78L1267.67 557.77" stroke="#132e65" stroke-width="1.5"></path><path d="M1147.93 664.17L1147.93 664.17" stroke="#132e65" stroke-width="1.5"></path><path d="M1147.93 664.17L1255.91 653.63" stroke="#132e65" stroke-width="1.5"></path><path d="M1147.93 664.17L1267.67 557.77" stroke="#132e65" stroke-width="1.5"></path><path d="M1147.93 664.17L1151.63 490.78" stroke="#132e65" stroke-width="1.5"></path><path d="M1147.93 664.17L963.72 668.39" stroke="#132e65" stroke-width="1.5"></path><path d="M1268.38 -60.25L1268.38 -60.25" stroke="#132e65" stroke-width="1.5"></path><path d="M1268.38 -60.25L1277.2 40.81" stroke="#132e65" stroke-width="1.5"></path><path d="M1268.38 -60.25L1411.99 -64.17" stroke="#132e65" stroke-width="1.5"></path><path d="M1277.2 40.81L1277.2 40.81" stroke="#132e65" stroke-width="1.5"></path><path d="M1277.2 40.81L1411.99 -64.17" stroke="#132e65" stroke-width="1.5"></path><path d="M1277.2 40.81L1455.65 42.08" stroke="#132e65" stroke-width="1.5"></path><path d="M1277.2 40.81L1252.39 245.92" stroke="#132e65" stroke-width="1.5"></path><path d="M1252.39 245.92L1252.39 245.92" stroke="#132e65" stroke-width="1.5"></path><path d="M1252.39 245.92L1271.45 355.7" stroke="#132e65" stroke-width="1.5"></path><path d="M1271.45 355.7L1271.45 355.7" stroke="#132e65" stroke-width="1.5"></path><path d="M1267.67 557.77L1267.67 557.77" stroke="#132e65" stroke-width="1.5"></path><path d="M1267.67 557.77L1255.91 653.63" stroke="#132e65" stroke-width="1.5"></path><path d="M1267.67 557.77L1388.02 540.42" stroke="#132e65" stroke-width="1.5"></path><path d="M1267.67 557.77L1271.45 355.7" stroke="#132e65" stroke-width="1.5"></path><path d="M1255.91 653.63L1255.91 653.63" stroke="#132e65" stroke-width="1.5"></path><path d="M1411.99 -64.17L1411.99 -64.17" stroke="#132e65" stroke-width="1.5"></path><path d="M1411.99 -64.17L1455.65 42.08" stroke="#132e65" stroke-width="1.5"></path><path d="M1411.99 -64.17L1588.84 -81.35" stroke="#132e65" stroke-width="1.5"></path><path d="M1455.65 42.08L1455.65 42.08" stroke="#132e65" stroke-width="1.5"></path><path d="M1455.65 42.08L1563.93 85.73" stroke="#132e65" stroke-width="1.5"></path><path d="M1455.65 42.08L1421.65 208.82" stroke="#132e65" stroke-width="1.5"></path><path d="M1421.65 208.82L1421.65 208.82" stroke="#132e65" stroke-width="1.5"></path><path d="M1421.65 208.82L1453.86 339.08" stroke="#132e65" stroke-width="1.5"></path><path d="M1421.65 208.82L1252.39 245.92" stroke="#132e65" stroke-width="1.5"></path><path d="M1421.65 208.82L1563.93 85.73" stroke="#132e65" stroke-width="1.5"></path><path d="M1421.65 208.82L1610.9 224.37" stroke="#132e65" stroke-width="1.5"></path><path d="M1421.65 208.82L1271.45 355.7" stroke="#132e65" stroke-width="1.5"></path><path d="M1453.86 339.08L1453.86 339.08" stroke="#132e65" stroke-width="1.5"></path><path d="M1453.86 339.08L1598.96 390.56" stroke="#132e65" stroke-width="1.5"></path><path d="M1453.86 339.08L1271.45 355.7" stroke="#132e65" stroke-width="1.5"></path><path d="M1453.86 339.08L1610.9 224.37" stroke="#132e65" stroke-width="1.5"></path><path d="M1453.86 339.08L1388.02 540.42" stroke="#132e65" stroke-width="1.5"></path><path d="M1453.86 339.08L1252.39 245.92" stroke="#132e65" stroke-width="1.5"></path><path d="M1388.02 540.42L1388.02 540.42" stroke="#132e65" stroke-width="1.5"></path><path d="M1456.27 653.19L1456.27 653.19" stroke="#132e65" stroke-width="1.5"></path><path d="M1456.27 653.19L1565.97 685.21" stroke="#132e65" stroke-width="1.5"></path><path d="M1456.27 653.19L1388.02 540.42" stroke="#132e65" stroke-width="1.5"></path><path d="M1456.27 653.19L1255.91 653.63" stroke="#132e65" stroke-width="1.5"></path><path d="M1456.27 653.19L1267.67 557.77" stroke="#132e65" stroke-width="1.5"></path><path d="M1456.27 653.19L1598.96 390.56" stroke="#132e65" stroke-width="1.5"></path><path d="M1588.84 -81.35L1588.84 -81.35" stroke="#132e65" stroke-width="1.5"></path><path d="M1588.84 -81.35L1563.93 85.73" stroke="#132e65" stroke-width="1.5"></path><path d="M1563.93 85.73L1563.93 85.73" stroke="#132e65" stroke-width="1.5"></path><path d="M1563.93 85.73L1610.9 224.37" stroke="#132e65" stroke-width="1.5"></path><path d="M1610.9 224.37L1610.9 224.37" stroke="#132e65" stroke-width="1.5"></path><path d="M1610.9 224.37L1598.96 390.56" stroke="#132e65" stroke-width="1.5"></path><path d="M1598.96 390.56L1598.96 390.56" stroke="#132e65" stroke-width="1.5"></path><path d="M1598.96 390.56L1421.65 208.82" stroke="#132e65" stroke-width="1.5"></path><path d="M1598.96 390.56L1388.02 540.42" stroke="#132e65" stroke-width="1.5"></path><path d="M1598.96 390.56L1565.97 685.21" stroke="#132e65" stroke-width="1.5"></path><path d="M1565.97 685.21L1565.97 685.21" stroke="#132e65" stroke-width="1.5"></path><path d="M1565.97 685.21L1388.02 540.42" stroke="#132e65" stroke-width="1.5"></path><path d="M1565.97 685.21L1255.91 653.63" stroke="#132e65" stroke-width="1.5"></path><path d="M1565.97 685.21L1267.67 557.77" stroke="#132e65" stroke-width="1.5"></path><circle r="5" cx="-47.05" cy="363.07" fill="#132e65"></circle><circle r="5" cx="-44.21" cy="527.31" fill="#132e65"></circle><circle r="5" cx="64.93" cy="368.19" fill="#132e65"></circle><circle r="5" cx="55.37" cy="523.02" fill="#132e65"></circle><circle r="5" cx="78.76" cy="672.51" fill="#132e65"></circle><circle r="5" cx="255.16" cy="345.85" fill="#132e65"></circle><circle r="5" cx="254.24" cy="530.26" fill="#132e65"></circle><circle r="5" cx="207.23" cy="639.04" fill="#132e65"></circle><circle r="5" cx="382.73" cy="528.69" fill="#132e65"></circle><circle r="5" cx="338.25" cy="707.03" fill="#132e65"></circle><circle r="5" cx="517.06" cy="411.74" fill="#132e65"></circle><circle r="5" cx="552.59" cy="551.6" fill="#132e65"></circle><circle r="5" cx="515.88" cy="695.05" fill="#132e65"></circle><circle r="5" cx="672.54" cy="220.52" fill="#132e65"></circle><circle r="5" cx="667.5" cy="401.47" fill="#132e65"></circle><circle r="5" cx="858.94" cy="87.49" fill="#132e65"></circle><circle r="5" cx="799.11" cy="227.41" fill="#132e65"></circle><circle r="5" cx="832.39" cy="368.29" fill="#132e65"></circle><circle r="5" cx="800.2" cy="545.18" fill="#132e65"></circle><circle r="5" cx="839.26" cy="707.36" fill="#132e65"></circle><circle r="5" cx="945.71" cy="-93.66" fill="#132e65"></circle><circle r="5" cx="947.16" cy="69.93" fill="#132e65"></circle><circle r="5" cx="982.02" cy="199.32" fill="#132e65"></circle><circle r="5" cx="937.91" cy="355.02" fill="#132e65"></circle><circle r="5" cx="969.75" cy="547.88" fill="#132e65"></circle><circle r="5" cx="963.72" cy="668.39" fill="#132e65"></circle><circle r="5" cx="1101.61" cy="-47.6" fill="#132e65"></circle><circle r="5" cx="1122.14" cy="71.62" fill="#132e65"></circle><circle r="5" cx="1154.7" cy="220.15" fill="#132e65"></circle><circle r="5" cx="1100.25" cy="353.73" fill="#132e65"></circle><circle r="5" cx="1151.63" cy="490.78" fill="#132e65"></circle><circle r="5" cx="1147.93" cy="664.17" fill="#132e65"></circle><circle r="5" cx="1268.38" cy="-60.25" fill="#132e65"></circle><circle r="5" cx="1277.2" cy="40.81" fill="#132e65"></circle><circle r="5" cx="1252.39" cy="245.92" fill="#132e65"></circle><circle r="5" cx="1271.45" cy="355.7" fill="#132e65"></circle><circle r="5" cx="1267.67" cy="557.77" fill="#132e65"></circle><circle r="5" cx="1255.91" cy="653.63" fill="#132e65"></circle><circle r="5" cx="1411.99" cy="-64.17" fill="#132e65"></circle><circle r="5" cx="1455.65" cy="42.08" fill="#132e65"></circle><circle r="5" cx="1421.65" cy="208.82" fill="#132e65"></circle><circle r="5" cx="1453.86" cy="339.08" fill="#132e65"></circle><circle r="5" cx="1388.02" cy="540.42" fill="#132e65"></circle><circle r="5" cx="1456.27" cy="653.19" fill="#132e65"></circle><circle r="5" cx="1588.84" cy="-81.35" fill="#132e65"></circle><circle r="5" cx="1563.93" cy="85.73" fill="#132e65"></circle><circle r="5" cx="1610.9" cy="224.37" fill="#132e65"></circle><circle r="5" cx="1598.96" cy="390.56" fill="#132e65"></circle><circle r="5" cx="1565.97" cy="685.21" fill="#132e65"></circle><path d="M524.99 530.14L524.99 530.14" stroke="hsl(228.5, 77.2%, 51.5%)" stroke-width="1.5"></path><path d="M524.99 530.14L668.67 555.76" stroke="hsl(228.5, 77.2%, 51.5%)" stroke-width="1.5"></path><path d="M524.99 530.14L557.14 686.76" stroke="hsl(228.5, 77.2%, 51.5%)" stroke-width="1.5"></path><path d="M524.99 530.14L369.59 683.99" stroke="hsl(228.5, 77.2%, 51.5%)" stroke-width="1.5"></path><path d="M524.99 530.14L241.97 505.04" stroke="hsl(228.5, 77.2%, 51.5%)" stroke-width="1.5"></path><path d="M524.99 530.14L804.28 693.69" stroke="hsl(228.5, 77.2%, 51.5%)" stroke-width="1.5"></path><path d="M1094.68 497.16L1094.68 497.16" stroke="hsl(228.5, 77.2%, 51.5%)" stroke-width="1.5"></path><path d="M1094.68 497.16L1097 363.45" stroke="hsl(228.5, 77.2%, 51.5%)" stroke-width="1.5"></path><path d="M1094.68 497.16L952.69 507.49" stroke="hsl(228.5, 77.2%, 51.5%)" stroke-width="1.5"></path><path d="M1094.68 497.16L1244.49 498.42" stroke="hsl(228.5, 77.2%, 51.5%)" stroke-width="1.5"></path><path d="M1094.68 497.16L1127.67 643.59" stroke="hsl(228.5, 77.2%, 51.5%)" stroke-width="1.5"></path><path d="M1094.68 497.16L949.99 372.81" stroke="hsl(228.5, 77.2%, 51.5%)" stroke-width="1.5"></path><path d="M1127.67 643.59L1127.67 643.59" stroke="hsl(228.5, 77.2%, 51.5%)" stroke-width="1.5"></path><path d="M1127.67 643.59L1286.23 641" stroke="hsl(228.5, 77.2%, 51.5%)" stroke-width="1.5"></path><path d="M1127.67 643.59L946.37 661.86" stroke="hsl(228.5, 77.2%, 51.5%)" stroke-width="1.5"></path><path d="M1127.67 643.59L1244.49 498.42" stroke="hsl(228.5, 77.2%, 51.5%)" stroke-width="1.5"></path><path d="M-107.53 534.74L-107.53 534.74" stroke="hsl(228.5, 77.2%, 51.5%)" stroke-width="1.5"></path><path d="M-107.53 534.74L-109.17 655.24" stroke="hsl(228.5, 77.2%, 51.5%)" stroke-width="1.5"></path><path d="M-107.53 534.74L41.98 493.75" stroke="hsl(228.5, 77.2%, 51.5%)" stroke-width="1.5"></path><path d="M-107.53 534.74L75.82 646.12" stroke="hsl(228.5, 77.2%, 51.5%)" stroke-width="1.5"></path><path d="M-107.53 534.74L241.97 505.04" stroke="hsl(228.5, 77.2%, 51.5%)" stroke-width="1.5"></path><path d="M-107.53 534.74L223.41 675.31" stroke="hsl(228.5, 77.2%, 51.5%)" stroke-width="1.5"></path><path d="M-109.17 655.24L-109.17 655.24" stroke="hsl(228.5, 77.2%, 51.5%)" stroke-width="1.5"></path><path d="M-109.17 655.24L75.82 646.12" stroke="hsl(228.5, 77.2%, 51.5%)" stroke-width="1.5"></path><path d="M-109.17 655.24L41.98 493.75" stroke="hsl(228.5, 77.2%, 51.5%)" stroke-width="1.5"></path><path d="M41.98 493.75L41.98 493.75" stroke="hsl(228.5, 77.2%, 51.5%)" stroke-width="1.5"></path><path d="M41.98 493.75L75.82 646.12" stroke="hsl(228.5, 77.2%, 51.5%)" stroke-width="1.5"></path><path d="M75.82 646.12L75.82 646.12" stroke="hsl(228.5, 77.2%, 51.5%)" stroke-width="1.5"></path><path d="M75.82 646.12L223.41 675.31" stroke="hsl(228.5, 77.2%, 51.5%)" stroke-width="1.5"></path><path d="M241.97 505.04L241.97 505.04" stroke="hsl(228.5, 77.2%, 51.5%)" stroke-width="1.5"></path><path d="M241.97 505.04L223.41 675.31" stroke="hsl(228.5, 77.2%, 51.5%)" stroke-width="1.5"></path><path d="M241.97 505.04L41.98 493.75" stroke="hsl(228.5, 77.2%, 51.5%)" stroke-width="1.5"></path><path d="M241.97 505.04L75.82 646.12" stroke="hsl(228.5, 77.2%, 51.5%)" stroke-width="1.5"></path><path d="M241.97 505.04L369.59 683.99" stroke="hsl(228.5, 77.2%, 51.5%)" stroke-width="1.5"></path><path d="M223.41 675.31L223.41 675.31" stroke="hsl(228.5, 77.2%, 51.5%)" stroke-width="1.5"></path><path d="M223.41 675.31L369.59 683.99" stroke="hsl(228.5, 77.2%, 51.5%)" stroke-width="1.5"></path><path d="M223.41 675.31L41.98 493.75" stroke="hsl(228.5, 77.2%, 51.5%)" stroke-width="1.5"></path><path d="M223.41 675.31L-109.17 655.24" stroke="hsl(228.5, 77.2%, 51.5%)" stroke-width="1.5"></path><path d="M369.59 683.99L369.59 683.99" stroke="hsl(228.5, 77.2%, 51.5%)" stroke-width="1.5"></path><path d="M369.59 683.99L557.14 686.76" stroke="hsl(228.5, 77.2%, 51.5%)" stroke-width="1.5"></path><path d="M369.59 683.99L75.82 646.12" stroke="hsl(228.5, 77.2%, 51.5%)" stroke-width="1.5"></path><path d="M557.14 686.76L557.14 686.76" stroke="hsl(228.5, 77.2%, 51.5%)" stroke-width="1.5"></path><path d="M557.14 686.76L668.67 555.76" stroke="hsl(228.5, 77.2%, 51.5%)" stroke-width="1.5"></path><path d="M557.14 686.76L804.28 693.69" stroke="hsl(228.5, 77.2%, 51.5%)" stroke-width="1.5"></path><path d="M557.14 686.76L223.41 675.31" stroke="hsl(228.5, 77.2%, 51.5%)" stroke-width="1.5"></path><path d="M557.14 686.76L241.97 505.04" stroke="hsl(228.5, 77.2%, 51.5%)" stroke-width="1.5"></path><path d="M668.67 555.76L668.67 555.76" stroke="hsl(228.5, 77.2%, 51.5%)" stroke-width="1.5"></path><path d="M668.67 555.76L804.28 693.69" stroke="hsl(228.5, 77.2%, 51.5%)" stroke-width="1.5"></path><path d="M668.67 555.76L852.49 381.83" stroke="hsl(228.5, 77.2%, 51.5%)" stroke-width="1.5"></path><path d="M852.49 381.83L852.49 381.83" stroke="hsl(228.5, 77.2%, 51.5%)" stroke-width="1.5"></path><path d="M852.49 381.83L949.99 372.81" stroke="hsl(228.5, 77.2%, 51.5%)" stroke-width="1.5"></path><path d="M852.49 381.83L941.75 261.74" stroke="hsl(228.5, 77.2%, 51.5%)" stroke-width="1.5"></path><path d="M852.49 381.83L952.69 507.49" stroke="hsl(228.5, 77.2%, 51.5%)" stroke-width="1.5"></path><path d="M852.49 381.83L1097 363.45" stroke="hsl(228.5, 77.2%, 51.5%)" stroke-width="1.5"></path><path d="M852.49 381.83L1094.68 497.16" stroke="hsl(228.5, 77.2%, 51.5%)" stroke-width="1.5"></path><path d="M804.28 693.69L804.28 693.69" stroke="hsl(228.5, 77.2%, 51.5%)" stroke-width="1.5"></path><path d="M804.28 693.69L946.37 661.86" stroke="hsl(228.5, 77.2%, 51.5%)" stroke-width="1.5"></path><path d="M804.28 693.69L952.69 507.49" stroke="hsl(228.5, 77.2%, 51.5%)" stroke-width="1.5"></path><path d="M941.75 261.74L941.75 261.74" stroke="hsl(228.5, 77.2%, 51.5%)" stroke-width="1.5"></path><path d="M941.75 261.74L949.99 372.81" stroke="hsl(228.5, 77.2%, 51.5%)" stroke-width="1.5"></path><path d="M941.75 261.74L1097 363.45" stroke="hsl(228.5, 77.2%, 51.5%)" stroke-width="1.5"></path><path d="M941.75 261.74L1144.44 214.54" stroke="hsl(228.5, 77.2%, 51.5%)" stroke-width="1.5"></path><path d="M941.75 261.74L952.69 507.49" stroke="hsl(228.5, 77.2%, 51.5%)" stroke-width="1.5"></path><path d="M941.75 261.74L1094.68 497.16" stroke="hsl(228.5, 77.2%, 51.5%)" stroke-width="1.5"></path><path d="M949.99 372.81L949.99 372.81" stroke="hsl(228.5, 77.2%, 51.5%)" stroke-width="1.5"></path><path d="M949.99 372.81L952.69 507.49" stroke="hsl(228.5, 77.2%, 51.5%)" stroke-width="1.5"></path><path d="M949.99 372.81L1097 363.45" stroke="hsl(228.5, 77.2%, 51.5%)" stroke-width="1.5"></path><path d="M952.69 507.49L952.69 507.49" stroke="hsl(228.5, 77.2%, 51.5%)" stroke-width="1.5"></path><path d="M952.69 507.49L946.37 661.86" stroke="hsl(228.5, 77.2%, 51.5%)" stroke-width="1.5"></path><path d="M946.37 661.86L946.37 661.86" stroke="hsl(228.5, 77.2%, 51.5%)" stroke-width="1.5"></path><path d="M1144.44 214.54L1144.44 214.54" stroke="hsl(228.5, 77.2%, 51.5%)" stroke-width="1.5"></path><path d="M1144.44 214.54L1281.87 204.46" stroke="hsl(228.5, 77.2%, 51.5%)" stroke-width="1.5"></path><path d="M1144.44 214.54L1097 363.45" stroke="hsl(228.5, 77.2%, 51.5%)" stroke-width="1.5"></path><path d="M1144.44 214.54L1262.04 82.35" stroke="hsl(228.5, 77.2%, 51.5%)" stroke-width="1.5"></path><path d="M1097 363.45L1097 363.45" stroke="hsl(228.5, 77.2%, 51.5%)" stroke-width="1.5"></path><path d="M1097 363.45L1244.49 498.42" stroke="hsl(228.5, 77.2%, 51.5%)" stroke-width="1.5"></path><path d="M1097 363.45L952.69 507.49" stroke="hsl(228.5, 77.2%, 51.5%)" stroke-width="1.5"></path><path d="M1257.15 -53.54L1257.15 -53.54" stroke="hsl(228.5, 77.2%, 51.5%)" stroke-width="1.5"></path><path d="M1257.15 -53.54L1262.04 82.35" stroke="hsl(228.5, 77.2%, 51.5%)" stroke-width="1.5"></path><path d="M1257.15 -53.54L1456.28 -109.22" stroke="hsl(228.5, 77.2%, 51.5%)" stroke-width="1.5"></path><path d="M1257.15 -53.54L1444.59 67.5" stroke="hsl(228.5, 77.2%, 51.5%)" stroke-width="1.5"></path><path d="M1257.15 -53.54L1281.87 204.46" stroke="hsl(228.5, 77.2%, 51.5%)" stroke-width="1.5"></path><path d="M1257.15 -53.54L1144.44 214.54" stroke="hsl(228.5, 77.2%, 51.5%)" stroke-width="1.5"></path><path d="M1257.15 -53.54L1396.08 210" stroke="hsl(228.5, 77.2%, 51.5%)" stroke-width="1.5"></path><path d="M1262.04 82.35L1262.04 82.35" stroke="hsl(228.5, 77.2%, 51.5%)" stroke-width="1.5"></path><path d="M1262.04 82.35L1281.87 204.46" stroke="hsl(228.5, 77.2%, 51.5%)" stroke-width="1.5"></path><path d="M1262.04 82.35L1444.59 67.5" stroke="hsl(228.5, 77.2%, 51.5%)" stroke-width="1.5"></path><path d="M1262.04 82.35L1396.08 210" stroke="hsl(228.5, 77.2%, 51.5%)" stroke-width="1.5"></path><path d="M1262.04 82.35L1456.28 -109.22" stroke="hsl(228.5, 77.2%, 51.5%)" stroke-width="1.5"></path><path d="M1281.87 204.46L1281.87 204.46" stroke="hsl(228.5, 77.2%, 51.5%)" stroke-width="1.5"></path><path d="M1281.87 204.46L1396.08 210" stroke="hsl(228.5, 77.2%, 51.5%)" stroke-width="1.5"></path><path d="M1281.87 204.46L1310.01 362.05" stroke="hsl(228.5, 77.2%, 51.5%)" stroke-width="1.5"></path><path d="M1281.87 204.46L1444.59 67.5" stroke="hsl(228.5, 77.2%, 51.5%)" stroke-width="1.5"></path><path d="M1310.01 362.05L1310.01 362.05" stroke="hsl(228.5, 77.2%, 51.5%)" stroke-width="1.5"></path><path d="M1310.01 362.05L1448.46 405.65" stroke="hsl(228.5, 77.2%, 51.5%)" stroke-width="1.5"></path><path d="M1310.01 362.05L1244.49 498.42" stroke="hsl(228.5, 77.2%, 51.5%)" stroke-width="1.5"></path><path d="M1244.49 498.42L1244.49 498.42" stroke="hsl(228.5, 77.2%, 51.5%)" stroke-width="1.5"></path><path d="M1244.49 498.42L1286.23 641" stroke="hsl(228.5, 77.2%, 51.5%)" stroke-width="1.5"></path><path d="M1286.23 641L1286.23 641" stroke="hsl(228.5, 77.2%, 51.5%)" stroke-width="1.5"></path><path d="M1286.23 641L1425.45 685.41" stroke="hsl(228.5, 77.2%, 51.5%)" stroke-width="1.5"></path><path d="M1286.23 641L1409.29 514.18" stroke="hsl(228.5, 77.2%, 51.5%)" stroke-width="1.5"></path><path d="M1286.23 641L1094.68 497.16" stroke="hsl(228.5, 77.2%, 51.5%)" stroke-width="1.5"></path><path d="M1286.23 641L1310.01 362.05" stroke="hsl(228.5, 77.2%, 51.5%)" stroke-width="1.5"></path><path d="M1456.28 -109.22L1456.28 -109.22" stroke="hsl(228.5, 77.2%, 51.5%)" stroke-width="1.5"></path><path d="M1456.28 -109.22L1444.59 67.5" stroke="hsl(228.5, 77.2%, 51.5%)" stroke-width="1.5"></path><path d="M1456.28 -109.22L1601.1 68.3" stroke="hsl(228.5, 77.2%, 51.5%)" stroke-width="1.5"></path><path d="M1456.28 -109.22L1396.08 210" stroke="hsl(228.5, 77.2%, 51.5%)" stroke-width="1.5"></path><path d="M1456.28 -109.22L1281.87 204.46" stroke="hsl(228.5, 77.2%, 51.5%)" stroke-width="1.5"></path><path d="M1444.59 67.5L1444.59 67.5" stroke="hsl(228.5, 77.2%, 51.5%)" stroke-width="1.5"></path><path d="M1444.59 67.5L1396.08 210" stroke="hsl(228.5, 77.2%, 51.5%)" stroke-width="1.5"></path><path d="M1444.59 67.5L1601.1 68.3" stroke="hsl(228.5, 77.2%, 51.5%)" stroke-width="1.5"></path><path d="M1396.08 210L1396.08 210" stroke="hsl(228.5, 77.2%, 51.5%)" stroke-width="1.5"></path><path d="M1448.46 405.65L1448.46 405.65" stroke="hsl(228.5, 77.2%, 51.5%)" stroke-width="1.5"></path><path d="M1448.46 405.65L1541.53 364.41" stroke="hsl(228.5, 77.2%, 51.5%)" stroke-width="1.5"></path><path d="M1448.46 405.65L1409.29 514.18" stroke="hsl(228.5, 77.2%, 51.5%)" stroke-width="1.5"></path><path d="M1448.46 405.65L1579.2 503.07" stroke="hsl(228.5, 77.2%, 51.5%)" stroke-width="1.5"></path><path d="M1448.46 405.65L1574.16 251.62" stroke="hsl(228.5, 77.2%, 51.5%)" stroke-width="1.5"></path><path d="M1409.29 514.18L1409.29 514.18" stroke="hsl(228.5, 77.2%, 51.5%)" stroke-width="1.5"></path><path d="M1409.29 514.18L1244.49 498.42" stroke="hsl(228.5, 77.2%, 51.5%)" stroke-width="1.5"></path><path d="M1409.29 514.18L1579.2 503.07" stroke="hsl(228.5, 77.2%, 51.5%)" stroke-width="1.5"></path><path d="M1409.29 514.18L1425.45 685.41" stroke="hsl(228.5, 77.2%, 51.5%)" stroke-width="1.5"></path><path d="M1409.29 514.18L1310.01 362.05" stroke="hsl(228.5, 77.2%, 51.5%)" stroke-width="1.5"></path><path d="M1425.45 685.41L1425.45 685.41" stroke="hsl(228.5, 77.2%, 51.5%)" stroke-width="1.5"></path><path d="M1425.45 685.41L1565.86 678.64" stroke="hsl(228.5, 77.2%, 51.5%)" stroke-width="1.5"></path><path d="M1601.1 68.3L1601.1 68.3" stroke="hsl(228.5, 77.2%, 51.5%)" stroke-width="1.5"></path><path d="M1601.1 68.3L1574.16 251.62" stroke="hsl(228.5, 77.2%, 51.5%)" stroke-width="1.5"></path><path d="M1601.1 68.3L1396.08 210" stroke="hsl(228.5, 77.2%, 51.5%)" stroke-width="1.5"></path><path d="M1601.1 68.3L1541.53 364.41" stroke="hsl(228.5, 77.2%, 51.5%)" stroke-width="1.5"></path><path d="M1574.16 251.62L1574.16 251.62" stroke="hsl(228.5, 77.2%, 51.5%)" stroke-width="1.5"></path><path d="M1574.16 251.62L1541.53 364.41" stroke="hsl(228.5, 77.2%, 51.5%)" stroke-width="1.5"></path><path d="M1541.53 364.41L1541.53 364.41" stroke="hsl(228.5, 77.2%, 51.5%)" stroke-width="1.5"></path><path d="M1541.53 364.41L1579.2 503.07" stroke="hsl(228.5, 77.2%, 51.5%)" stroke-width="1.5"></path><path d="M1579.2 503.07L1579.2 503.07" stroke="hsl(228.5, 77.2%, 51.5%)" stroke-width="1.5"></path><path d="M1579.2 503.07L1565.86 678.64" stroke="hsl(228.5, 77.2%, 51.5%)" stroke-width="1.5"></path><path d="M1579.2 503.07L1425.45 685.41" stroke="hsl(228.5, 77.2%, 51.5%)" stroke-width="1.5"></path><path d="M1565.86 678.64L1565.86 678.64" stroke="hsl(228.5, 77.2%, 51.5%)" stroke-width="1.5"></path><path d="M1565.86 678.64L1409.29 514.18" stroke="hsl(228.5, 77.2%, 51.5%)" stroke-width="1.5"></path><path d="M1565.86 678.64L1286.23 641" stroke="hsl(228.5, 77.2%, 51.5%)" stroke-width="1.5"></path><path d="M1565.86 678.64L1448.46 405.65" stroke="hsl(228.5, 77.2%, 51.5%)" stroke-width="1.5"></path><circle r="25" cx="524.99" cy="530.14" fill="url(&quot;#SvgjsRadialGradient1001&quot;)"></circle><circle r="25" cx="1094.68" cy="497.16" fill="url(&quot;#SvgjsRadialGradient1001&quot;)"></circle><circle r="25" cx="1127.67" cy="643.59" fill="url(&quot;#SvgjsRadialGradient1001&quot;)"></circle><circle r="5" cx="-107.53" cy="534.74" fill="#8b9ad9"></circle><circle r="5" cx="-109.17" cy="655.24" fill="#8b9ad9"></circle><circle r="5" cx="41.98" cy="493.75" fill="#8b9ad9"></circle><circle r="5" cx="75.82" cy="646.12" fill="#8b9ad9"></circle><circle r="5" cx="241.97" cy="505.04" fill="#8b9ad9"></circle><circle r="5" cx="223.41" cy="675.31" fill="#8b9ad9"></circle><circle r="5" cx="369.59" cy="683.99" fill="#8b9ad9"></circle><circle r="5" cx="557.14" cy="686.76" fill="#8b9ad9"></circle><circle r="5" cx="668.67" cy="555.76" fill="#8b9ad9"></circle><circle r="5" cx="852.49" cy="381.83" fill="#8b9ad9"></circle><circle r="5" cx="804.28" cy="693.69" fill="#8b9ad9"></circle><circle r="5" cx="941.75" cy="261.74" fill="#8b9ad9"></circle><circle r="5" cx="949.99" cy="372.81" fill="#8b9ad9"></circle><circle r="5" cx="952.69" cy="507.49" fill="#8b9ad9"></circle><circle r="5" cx="946.37" cy="661.86" fill="#8b9ad9"></circle><circle r="5" cx="1144.44" cy="214.54" fill="#8b9ad9"></circle><circle r="5" cx="1097" cy="363.45" fill="#8b9ad9"></circle><circle r="5" cx="1257.15" cy="-53.54" fill="#8b9ad9"></circle><circle r="5" cx="1262.04" cy="82.35" fill="#8b9ad9"></circle><circle r="5" cx="1281.87" cy="204.46" fill="#8b9ad9"></circle><circle r="5" cx="1310.01" cy="362.05" fill="#8b9ad9"></circle><circle r="5" cx="1244.49" cy="498.42" fill="#8b9ad9"></circle><circle r="5" cx="1286.23" cy="641" fill="#8b9ad9"></circle><circle r="5" cx="1456.28" cy="-109.22" fill="#8b9ad9"></circle><circle r="5" cx="1444.59" cy="67.5" fill="#8b9ad9"></circle><circle r="5" cx="1396.08" cy="210" fill="#8b9ad9"></circle><circle r="5" cx="1448.46" cy="405.65" fill="#8b9ad9"></circle><circle r="5" cx="1409.29" cy="514.18" fill="#8b9ad9"></circle><circle r="5" cx="1425.45" cy="685.41" fill="#8b9ad9"></circle><circle r="5" cx="1601.1" cy="68.3" fill="#8b9ad9"></circle><circle r="5" cx="1574.16" cy="251.62" fill="#8b9ad9"></circle><circle r="5" cx="1541.53" cy="364.41" fill="#8b9ad9"></circle><circle r="5" cx="1579.2" cy="503.07" fill="#8b9ad9"></circle><circle r="5" cx="1565.86" cy="678.64" fill="#8b9ad9"></circle></g><defs><mask id="SvgjsMask1000"><rect width="1440" height="560" fill="#ffffff"></rect></mask><radialGradient id="SvgjsRadialGradient1001"><stop stop-color="#ffffff" offset="0.1"></stop><stop stop-color="#1735b3" offset="0.2"></stop><stop stop-color="rgba(23, 53, 179, 0)" offset="1"></stop></radialGradient></defs></svg>